<?xml version="1.0" encoding="UTF-8" standalone="no"?>
<!-- Generator: Adobe Illustrator 21.1.0, SVG Export Plug-In . SVG Version: 6.00 Build 0)  -->

<svg
   version="1.1"
   id="Layer_1"
   x="0px"
   y="0px"
   viewBox="0 0 297.4 1417.3"
   style="enable-background:new 0 0 297.4 1417.3;"
   xml:space="preserve"
   sodipodi:docname="icon.svg"
   inkscape:version="1.1.1 (3bf5ae0d25, 2021-09-20)"
   xmlns:inkscape="http://www.inkscape.org/namespaces/inkscape"
   xmlns:sodipodi="http://sodipodi.sourceforge.net/DTD/sodipodi-0.dtd"
   xmlns="http://www.w3.org/2000/svg"
   xmlns:svg="http://www.w3.org/2000/svg"><defs
   id="defs898" /><sodipodi:namedview
   id="namedview896"
   pagecolor="#ffffff"
   bordercolor="#666666"
   borderopacity="1.0"
   inkscape:pageshadow="2"
   inkscape:pageopacity="0.0"
   inkscape:pagecheckerboard="0"
   showgrid="false"
   showguides="true"
   inkscape:guide-bbox="true"
   inkscape:snap-global="false"
   inkscape:zoom="0.18060584"
   inkscape:cx="-700.42032"
   inkscape:cy="254.6983"
   inkscape:window-width="1920"
   inkscape:window-height="975"
   inkscape:window-x="1920"
   inkscape:window-y="0"
   inkscape:window-maximized="1"
   inkscape:current-layer="Layer_1"><sodipodi:guide
     position="-333.59941,232.39925"
     orientation="0,-1"
     id="guide2039" /><sodipodi:guide
     position="-193.06898,374.18009"
     orientation="0,-1"
     id="guide3934" /><sodipodi:guide
     position="159.54413,275.04237"
     orientation="0,-1"
     id="guide3936" /><sodipodi:guide
     position="-359.89978,1281.6455"
     orientation="0,-1"
     id="guide3938" /></sodipodi:namedview>

<g
   id="g893"
   transform="matrix(0.6123078,0,0,0.60782366,49.85261,46.157931)"><path
     id="path885"
     style="stroke-width:0.610062;fill:#1a1a1a"
     d="M 139.1875 46.158203 C 89.896722 46.158203 49.853516 85.910039 49.853516 134.83984 L 49.853516 422.88672 C 49.853516 434.00989 58.976408 443.06641 70.181641 443.06641 L 75.630859 443.06641 L 75.630859 1284.6133 C 75.630859 1309.7772 90.93944 1365.4147 112.79883 1374.8359 C 119.22806 1377.6319 126.45312 1372.8904 126.45312 1365.9004 L 126.45312 1208.0762 C 126.45312 1200.1745 132.88111 1193.7305 140.90234 1193.7305 C 148.86235 1193.7305 155.35352 1200.1137 155.35352 1208.0762 L 155.35352 1365.9004 C 155.35352 1372.8904 162.57858 1377.6319 169.00781 1374.8359 C 190.8672 1365.4147 206.17383 1309.7772 206.17383 1284.6133 L 206.17383 443.00586 L 211.625 443.00586 C 222.83023 443.00586 231.95312 433.94934 231.95312 422.82617 L 231.95312 134.83984 C 231.95312 85.910039 191.84673 46.158203 142.61719 46.158203 L 139.1875 46.158203 z M 139.06641 58.314453 L 142.49414 58.314453 C 184.9883 58.314453 219.58398 92.656882 219.58398 134.83984 L 219.58398 422.82617 L 219.70703 422.82617 C 219.70703 427.26328 216.09358 430.91016 211.5625 430.91016 L 70.119141 430.91016 C 65.649294 430.91016 61.976562 427.32407 61.976562 422.82617 L 61.976562 134.83984 C 61.976563 92.656882 96.572245 58.314453 139.06641 58.314453 z M 103.41797 1313.4004 A 10.227515 9.3926182 0 0 1 113.64648 1322.793 A 10.227515 9.3926182 0 0 1 103.41797 1332.1855 A 10.227515 9.3926182 0 0 1 93.191406 1322.793 A 10.227515 9.3926182 0 0 1 103.41797 1313.4004 z M 177.33398 1314.0898 A 10.227515 9.3926182 0 0 1 187.5625 1323.4824 A 10.227515 9.3926182 0 0 1 177.33398 1332.875 A 10.227515 9.3926182 0 0 1 167.10742 1323.4824 A 10.227515 9.3926182 0 0 1 177.33398 1314.0898 z "
     transform="matrix(1.6331655,0,0,1.645214,-81.417565,-75.939675)" /><path
     d="M 140.8,39.5 C 83.7,39.5 37.3,85.9 37.3,143 c 0,2 1.6,3.6 3.6,3.6 2,0 3.6,-1.6 3.6,-3.6 0,-53.1 43.2,-96.3 96.3,-96.3 2,0 3.6,-1.6 3.6,-3.6 0,-2 -1.6,-3.6 -3.6,-3.6 z"
     id="path891" /></g><ellipse
   style="fill:#000000;stroke-width:5.34385;stroke-linecap:round;stroke-linejoin:round;stroke-miterlimit:1;stroke-dashoffset:1"
   id="path3454"
   cx="142.95546"
   cy="1092.9596"
   rx="47.825405"
   ry="46.894337" /><path
   d="m 119.61614,156.43994 c 0.20434,6.67275 0.41548,14.00116 4.71222,19.49916 5.35641,6.25226 14.41807,8.33252 22.27166,6.59568 6.47343,-1.36688 12.68303,-5.63244 15.06763,-11.97252 2.01287,-6.60356 -1.89636,-13.72405 -7.52019,-17.19307 -8.943,-5.29403 -18.12154,-10.73647 -28.44253,-12.79272 -3.01123,-0.5413 -4.68354,2.61762 -4.94344,5.151 -0.53629,3.55397 -1.03637,6.65483 -1.14499,10.71283 z"
   class="a"
   id="path4"
   style="fill:#b3b3b3;stroke-width:0.35848" /><path
   d="m 134.53752,138.87764 c 0.35632,-0.48503 6.85772,-3.11555 7.71413,-3.2231 1.14714,0.0526 7.21191,2.67211 7.58866,3.06573 -0.43877,0.43447 -3.31199,2.20214 -5.29009,2.90763 -2.47028,0.96144 -4.33437,0.12259 -6.25655,-0.77396 -1.27869,-0.59866 -3.47833,-1.55975 -3.7558,-1.9763 z"
   class="a"
   id="path6"
   style="fill:#b3b3b3;stroke-width:0.35848" /><path
   d="m 147.80845,144.27993 c 4.08524,-2.18995 8.36621,-4.28885 13.07987,-4.55987 2.52585,-0.1355 2.14335,3.77695 2.74201,5.54103 0.32658,2.65312 0.83885,5.34243 0.65136,8.01275 -0.29574,1.8286 -3.52278,-0.62303 -4.88537,-1.9573 -3.5805,-2.7689 -7.50657,-5.08827 -11.58787,-7.03661 z"
   class="a"
   id="path8"
   style="fill:#b3b3b3;stroke-width:0.35848" /></svg>
