<?xml version="1.0" encoding="utf-8"?>
<!-- Generator: Adobe Illustrator 21.1.0, SVG Export Plug-In . SVG Version: 6.00 Build 0)  -->
<svg version="1.1" id="Laag_1" xmlns="http://www.w3.org/2000/svg" xmlns:xlink="http://www.w3.org/1999/xlink" x="0px" y="0px"
	 viewBox="0 0 1600 1600" style="enable-background:new 0 0 1600 1600;" xml:space="preserve">
<g transform="translate(0.000000,1600.000000) scale(0.100000,-0.100000)">
	<path d="M9643,15323c-732-1026-1303-2062-1548-2808c-109-332-158-608-158-890c1-442,122-817,383-1188c80-114,295-332,414-419
		c235-175,525-297,826-350c101-17,461-17,560,0c416,75,739,240,1034,530c458,451,667,1092,570,1751c-44,302-141,624-301,1001
		c-228,538-635,1267-1088,1945c-164,246-483,695-494,695C9837,15590,9749,15470,9643,15323z M9952,14288c411-598,839-1438,1026-2018
		c108-334,144-563,123-777c-61-602-472-1072-1036-1184c-113-23-380-18-485,8c-264,66-459,179-639,369c-181,191-298,428-347,704
		c-20,114-20,340,1,455c90,507,403,1240,861,2011c128,217,370,583,385,584C9844,14440,9894,14371,9952,14288z"/>
	<path d="M6125,12206c-62-19-80-32-168-113c-264-243-674-423-1153-505c-187-32-523-32-708,0c-204,35-386,85-551,149
		c-233,92-494,248-579,347c-84,99-212,143-322,111c-87-25-123-46-196-118c-162-158-482-324-803-416c-191-55-401-88-620-100
		c-174-9-232-28-305-101c-85-85-113-220-69-335c30-80,104-154,182-183c155-58,673,3,1048,124c250,80,515,205,711,334l107,70l123-81
		c272-178,627-323,973-399c303-66,662-87,955-56c263,28,550,94,787,181c144,53,422,193,547,275l108,71l102-67
		c130-85,405-220,571-279c72-26,207-66,300-90c162-41,381-82,391-73c2,3-9,61-25,129c-29,120-55,293-67,451l-6,77l-56,12
		c-356,73-832,302-901,434c-30,57-88,110-155,141C6288,12223,6193,12227,6125,12206z"/>
	<path d="M13113,12190c-61-13-89-30-188-115c-166-142-404-280-611-354l-91-33l-6-141c-7-154-27-314-56-447c-11-47-17-87-15-89
		c7-8,231,59,359,107c212,79,398,174,579,294c49,32,91,58,95,56c3-2,51-33,107-70c187-125,446-249,670-321c320-104,696-165,950-155
		c93,3,116,8,160,30c156,81,220,269,144,424c-61,125-169,184-334,184c-227,0-573,67-826,160c-240,88-443,203-613,347
		C13309,12175,13216,12210,13113,12190z"/>
	<path d="M6147,8720c-63-19-136-66-208-135c-314-299-940-515-1494-515c-470,0-977,148-1336,389c-57,38-133,98-169,134
		c-79,78-150,109-252,109c-90,0-143-25-237-115c-250-235-679-418-1149-492c-57-8-177-20-268-24c-189-11-236-26-312-103
		c-67-67-87-118-87-223c0-78,4-97,27-140c34-65,90-118,158-149c50-24,66-26,190-26c518,0,1131,183,1567,468l121,80l114-75
		c127-84,404-224,548-277c686-251,1395-262,2076-32c225,76,462,191,646,313l110,73l47-33c298-213,697-379,1111-461
		c548-109,1122-61,1670,141c146,53,423,193,548,276l114,75l113-74c368-242,830-403,1315-459c181-21,566-16,730,10
		c480,75,895,229,1235,458c49,33,94,60,100,60c5,0,51-28,101-61c454-303,1098-494,1615-480c105,2,131,6,171,26
		c191,94,239,344,99,505c-18,20-61,51-96,68c-59,29-72,31-233,40c-459,24-907,162-1232,378c-86,57-109,77-129,115
		c-73,141-261,201-406,130c-33-16-84-54-115-84c-176-178-478-340-810-435c-533-153-1035-139-1565,46c-252,87-541,250-589,333
		c-32,55-96,113-155,139c-35,16-66,22-126,22c-103,0-163-28-259-120c-319-305-952-525-1512-525c-456,0-973,148-1322,380
		c-76,50-96,70-117,109C6433,8682,6271,8757,6147,8720z"/>
	<path d="M5969,6623c-30-43-107-150-170-238c-570-791-1145-1799-1414-2480c-324-819-343-1456-60-2043c297-616,861-1021,1520-1093
		c132-14,362-7,490,16c663,116,1214,575,1469,1224c46,115,99,323,117,451c20,138,17,449-4,590c-67,436-217,866-503,1440
		c-246,492-550,1010-906,1544c-157,235-466,666-476,666C6028,6700,5999,6665,5969,6623z M6162,5369c475-696,926-1630,1073-2219
		c51-207,60-271,59-435c-2-280-76-524-231-758c-68-103-250-283-356-352c-424-275-939-272-1362,6c-88,58-249,213-312,299
		c-133,184-220,397-253,619c-16,107-13,315,5,423c90,529,458,1367,948,2159c123,198,290,440,301,436C6039,5545,6097,5465,6162,5369z
		"/>
	<path d="M13115,5222c-70-25-128-65-194-131c-113-114-384-272-601-349c-307-110-598-163-895-163c-551,0-1139,203-1495,516
		c-88,77-149,107-230,112c-95,7-158-20-257-108c-326-293-847-489-1383-518c-83-5-153-11-156-14s20-62,50-131c59-132,165-395,185-458
		c11-33,16-37,39-33c15,2,72,9,127,15c463,52,955,228,1314,469l73,49l113-74c354-233,809-392,1285-450c180-22,502-22,675,0
		c504,64,956,227,1330,479l79,54l111-73c447-293,1029-470,1570-477c132-2,143,0,195,24c79,37,125,81,160,153c77,156,11,351-145,426
		c-50,24-143,39-247,40c-146,0-413,46-618,106c-303,87-669,277-713,369c-27,58-102,131-159,155C13257,5241,13178,5245,13115,5222z"
		/>
	<path d="M2625,5206c-63-20-95-40-174-110c-188-167-423-294-722-391c-228-73-426-110-687-126c-143-9-175-14-222-35
		c-68-31-123-83-158-149c-23-43-27-62-27-140c0-103,19-154,82-218c92-96,167-114,401-98c570,39,1079,203,1494,481l86,58l64-43
		c296-198,659-347,1042-428c107-23,118-24,123-9c23,66,135,336,188,452c41,90,59,142,52,144s-68,13-137,24c-424,71-843,261-1075,489
		c-64,63-91,82-134,96C2759,5223,2682,5224,2625,5206z"/>
</g>
</svg>
