<?xml version="1.0" standalone="no"?>
<!DOCTYPE svg PUBLIC "-//W3C//DTD SVG 20010904//EN"
 "http://www.w3.org/TR/2001/REC-SVG-20010904/DTD/svg10.dtd">
<svg version="1.0" xmlns="http://www.w3.org/2000/svg"
 width="225.000000pt" height="225.000000pt" viewBox="0 0 225.000000 225.000000"
 preserveAspectRatio="xMidYMid meet">
<g transform="translate(0.000000,225.000000) scale(0.100000,-0.100000)"
fill="#000000" stroke="none">
<path d="M1175 1689 c-373 -69 -649 -367 -696 -750 -18 -152 28 -397 86 -454
30 -31 165 -72 279 -86 286 -34 601 108 771 345 107 151 157 306 158 496 1
130 -11 200 -54 314 -20 54 -25 60 -75 83 -116 53 -332 77 -469 52z m320 -74
c133 -31 143 -6 -98 -247 l-212 -213 -6 50 c-4 28 -10 132 -14 232 l-7 182 24
5 c78 18 216 14 313 -9z m-388 -276 l11 -254 -136 -137 c-75 -76 -137 -136
-139 -134 -5 5 -32 630 -27 637 19 32 243 153 269 145 6 -1 15 -106 22 -257z
m578 121 c19 -62 31 -263 21 -335 l-8 -47 -106 6 c-59 3 -165 9 -236 12 l-128
7 213 213 c117 118 217 210 220 206 4 -4 15 -32 24 -62z m-921 -401 l15 -314
-93 -94 -94 -94 -22 69 c-17 51 -24 102 -27 195 -6 149 13 244 76 374 35 73
117 192 127 183 2 -2 10 -146 18 -319z m729 -35 c98 -4 179 -10 182 -13 11
-18 -75 -187 -130 -255 l-23 -29 -303 13 c-167 6 -310 14 -318 16 -10 3 33 53
125 145 l139 141 75 -6 c41 -3 155 -9 253 -12z m-110 -353 c37 -1 67 -5 67
-10 0 -6 -39 -36 -88 -68 -198 -133 -436 -167 -671 -97 l-54 16 91 91 92 92
247 -12 c137 -6 278 -12 316 -12z"/>
</g>
</svg>
