<?xml version="1.0" encoding="utf-8"?>
<!-- Generator: Adobe Illustrator 21.1.0, SVG Export Plug-In . SVG Version: 6.00 Build 0)  -->
<svg version="1.1" id="Laag_1" xmlns="http://www.w3.org/2000/svg" xmlns:xlink="http://www.w3.org/1999/xlink" x="0px" y="0px"
	 viewBox="0 0 225 225" style="enable-background:new 0 0 225 225;" xml:space="preserve">
<g transform="translate(0.000000,225.000000) scale(0.100000,-0.100000)">
	<path d="M1175,1689c-373-69-649-367-696-750c-18-152,28-397,86-454c30-31,165-72,279-86c286-34,601,108,771,345
		c107,151,157,306,158,496c1,130-11,200-54,314c-20,54-25,60-75,83C1528,1690,1312,1714,1175,1689z M1495,1615c133-31,143-6-98-247
		l-212-213l-6,50c-4,28-10,132-14,232l-7,182l24,5C1260,1642,1398,1638,1495,1615z M1107,1339l11-254L982,948
		c-75-76-137-136-139-134c-5,5-32,630-27,637c19,32,243,153,269,145C1091,1595,1100,1490,1107,1339z M1685,1460c19-62,31-263,21-335
		l-8-47l-106,6c-59,3-165,9-236,12l-128,7l213,213c117,118,217,210,220,206C1665,1518,1676,1490,1685,1460z M764,1059l15-314l-93-94
		l-94-94l-22,69c-17,51-24,102-27,195c-6,149,13,244,76,374c35,73,117,192,127,183C748,1376,756,1232,764,1059z M1493,1024
		c98-4,179-10,182-13c11-18-75-187-130-255l-23-29l-303,13c-167,6-310,14-318,16c-10,3,33,53,125,145l139,141l75-6
		C1281,1033,1395,1027,1493,1024z M1383,671c37-1,67-5,67-10c0-6-39-36-88-68c-198-133-436-167-671-97l-54,16l91,91l92,92l247-12
		C1204,677,1345,671,1383,671z"/>
</g>
</svg>
