<?xml version="1.0" ?><!DOCTYPE svg  PUBLIC '-//W3C//DTD SVG 1.1//EN'  'http://www.w3.org/Graphics/SVG/1.1/DTD/svg11.dtd'><svg enable-background="new 0 0 24 24" height="24px" id="Layer_1" version="1.1" viewBox="0 0 24 24" width="24px" xml:space="preserve" xmlns="http://www.w3.org/2000/svg" xmlns:xlink="http://www.w3.org/1999/xlink"><g><g id="path9-16_4_"><path d="M9.2,23.5c-0.4,0-0.8-0.1-1.3-0.2c-0.7-0.2-1.2-0.5-1.6-0.8c-0.4-0.4-0.6-0.7-0.8-1c-0.6-1.1-0.7-2.1-0.3-3.2l0.2-0.5    c-0.4,0-0.9,0-1.3-0.1c-0.4,0-0.8-0.2-1.2-0.5c-0.3-0.2-0.5-0.5-0.7-0.7c-0.4-0.7-0.5-1.4-0.3-2.1c0.2-0.5,0.4-1,0.8-1.3    c-0.4-0.1-0.7-0.3-1-0.6c-0.3-0.3-0.6-0.6-0.8-0.9c-0.5-0.9-0.6-1.9-0.2-2.9c0.4-1,1.1-1.8,2.1-2.3c0.9-0.5,1.8-0.6,2.7-0.5    C5.3,5.1,5.3,4.4,5.4,3.6c0.2-1,0.7-1.8,1.4-2.2C7.6,1,8.2,1,9.1,1.1c0.9,0.2,1.6,0.7,2.1,1.5c0.4-0.7,1-1.3,1.7-1.6    c1-0.5,2-0.6,3.1-0.4c1.1,0.3,1.9,0.8,2.4,1.7l0.1,0.1c0.6,1,0.7,2.1,0.4,3.2l0.1,0c0.7-0.1,1.2,0,1.7,0.1c0.9,0.3,1.6,0.7,2,1.5    c0,0.1,0.1,0.1,0.1,0.2c0.3,0.7,0.4,1.3,0.1,2.1c-0.3,0.7-0.7,1.3-1.4,1.8c0.1,0.1,0.2,0.1,0.3,0.2c0.4,0.3,0.7,0.7,1,1.1l0.2,0.3    c0.5,1,0.6,2,0.3,3.1c-0.3,1.1-1,2-2,2.5c-1,0.5-2,0.6-3.2,0.2c-0.1,0-0.2,0-0.3-0.1c0,0.5,0,0.9-0.1,1.4    c-0.2,0.8-0.7,1.4-1.3,1.8c-0.6,0.4-1.4,0.5-2.2,0.3c-0.5-0.1-0.9-0.4-1.4-0.8c-0.4,0.8-1,1.4-1.8,1.9    C10.5,23.3,9.8,23.5,9.2,23.5z M6.4,16.6c0.2,0,0.3,0.1,0.4,0.2c0.1,0.2,0.1,0.4,0,0.6l-0.6,0.9l-0.1,0.3    c-0.3,0.8-0.2,1.5,0.2,2.3c0.2,0.2,0.4,0.5,0.6,0.8c0.3,0.2,0.6,0.4,1.2,0.6c0.9,0.2,1.7,0.2,2.4-0.2c0.7-0.4,1.2-1,1.5-1.8l0-0.1    c0-0.2,0.2-0.3,0.4-0.4c0.2-0.1,0.4,0,0.5,0.1c0.6,0.6,1.1,1,1.5,1.1c0.6,0.2,1,0.1,1.4-0.2c0.4-0.3,0.7-0.7,0.9-1.2    c0.1-0.6,0.1-1.2,0-1.9c0-0.2,0-0.4,0.2-0.5c0.2-0.1,0.4-0.1,0.6,0c0.3,0.2,0.5,0.3,0.9,0.4c1,0.3,1.7,0.2,2.4-0.1    c0.7-0.4,1.2-1,1.5-1.9c0.2-0.8,0.1-1.6-0.3-2.3L22,13.1c-0.2-0.4-0.4-0.6-0.7-0.8c-0.3-0.2-0.6-0.3-0.9-0.5    c-0.2-0.1-0.3-0.3-0.3-0.5c0-0.2,0.1-0.4,0.3-0.5c0.9-0.4,1.5-1,1.7-1.7c0.2-0.5,0.1-0.9-0.1-1.4c0,0,0-0.1-0.1-0.1    c-0.3-0.5-0.7-0.8-1.3-0.9c-0.3-0.1-0.8-0.1-1.3,0l-1,0.2c-0.2,0-0.4,0-0.5-0.2c-0.1-0.1-0.1-0.3-0.1-0.5L18,5.4    c0.3-0.8,0.2-1.6-0.3-2.4l-0.1-0.1c-0.4-0.7-1-1.1-1.8-1.3c-0.9-0.2-1.6-0.1-2.4,0.3c-0.8,0.4-1.3,1-1.5,1.8c0,0,0,0,0,0.1l0,0.2    c0,0.2-0.2,0.4-0.4,0.4c-0.2,0-0.4-0.1-0.5-0.3l-0.4-0.8c-0.4-0.6-0.9-1-1.6-1.2C8.3,2,7.8,2,7.3,2.3C6.8,2.6,6.5,3.1,6.4,3.8    c-0.1,0.8,0,1.5,0.4,2.3L7,6.4C7.1,6.5,7.1,6.8,7,7C6.9,7.1,6.7,7.2,6.4,7.1L5.7,6.9C5,6.7,4.1,6.8,3.3,7.2C2.6,7.6,2.1,8.2,1.7,9    c-0.3,0.7-0.3,1.4,0.1,2c0.1,0.2,0.3,0.5,0.6,0.7c0.3,0.3,0.7,0.5,1.2,0.6l0.3,0.1c0.2,0.1,0.3,0.2,0.3,0.4c0,0.2,0,0.4-0.2,0.5    l-0.5,0.4c-0.3,0.3-0.6,0.6-0.7,1.1c-0.1,0.4-0.1,0.8,0.2,1.2c0.1,0.2,0.2,0.3,0.4,0.4c0.3,0.2,0.5,0.3,0.7,0.3    c0.8,0.2,1.4,0.1,2-0.1C6.3,16.6,6.3,16.6,6.4,16.6z M11.8,14.7c-0.7,0-1.4-0.3-1.8-0.8c-0.5-0.4-0.8-1.1-0.8-1.8    c0-0.7,0.3-1.2,0.8-1.8c0.5-0.5,1.2-0.7,1.8-0.7c0.7,0,1.3,0.3,1.8,0.7c0.5,0.5,0.8,1.1,0.8,1.8c0,0.8-0.3,1.4-0.8,1.8    C13.1,14.5,12.5,14.7,11.8,14.7z M11.8,10.6c-0.4,0-0.8,0.1-1.2,0.4c-0.3,0.3-0.5,0.7-0.5,1.1c0,0.4,0.2,0.8,0.5,1.1    c0.6,0.6,1.6,0.7,2.3,0c0.3-0.3,0.5-0.6,0.5-1.1c0-0.4-0.1-0.8-0.5-1.1C12.6,10.8,12.2,10.6,11.8,10.6z"/></g><g><path d="M6.4,17.6c-0.2,0-0.3-0.1-0.4-0.2c-0.2-0.2-0.1-0.5,0.1-0.7l4.3-3.2c0.2-0.2,0.5-0.1,0.7,0.1c0.2,0.2,0.1,0.5-0.1,0.7    l-4.3,3.2C6.6,17.6,6.5,17.6,6.4,17.6z"/></g><g><path d="M12.6,20.8c-0.3,0-0.5-0.2-0.5-0.4l-0.6-5.8c0-0.3,0.2-0.5,0.4-0.5c0.3,0,0.5,0.2,0.5,0.4l0.6,5.8    C13.1,20.6,12.9,20.8,12.6,20.8C12.6,20.8,12.6,20.8,12.6,20.8z"/></g><g><path d="M3.8,13.3c-0.3,0-0.5-0.2-0.5-0.5c0-0.3,0.2-0.5,0.5-0.5l5.7-0.5c0.3,0,0.5,0.2,0.5,0.5c0,0.3-0.2,0.5-0.5,0.5L3.8,13.3    C3.8,13.3,3.8,13.3,3.8,13.3z"/></g><g><path d="M10.7,10.9c-0.1,0-0.2,0-0.3-0.1L6.3,7C6.1,6.9,6,6.5,6.2,6.3c0.2-0.2,0.5-0.2,0.7,0L11,10c0.2,0.2,0.2,0.5,0,0.7    C11,10.9,10.8,10.9,10.7,10.9z"/></g><g><path d="M11.3,10.5c-0.3,0-0.5-0.2-0.5-0.5V3.6c0-0.3,0.2-0.5,0.5-0.5s0.5,0.2,0.5,0.5V10C11.8,10.3,11.6,10.5,11.3,10.5z"/></g><g><path d="M13.4,10.9c-0.1,0-0.3-0.1-0.4-0.2c-0.2-0.2-0.2-0.5,0.1-0.7l4.7-4c0.2-0.2,0.5-0.2,0.7,0.1c0.2,0.2,0.2,0.5-0.1,0.7    l-4.7,4C13.7,10.9,13.6,10.9,13.4,10.9z"/></g><g><path d="M14.1,12.5c-0.3,0-0.5-0.2-0.5-0.4c0-0.3,0.2-0.5,0.4-0.6l6.3-0.7c0.3,0,0.5,0.2,0.6,0.4c0,0.3-0.2,0.5-0.4,0.6L14.1,12.5    C14.2,12.5,14.2,12.5,14.1,12.5z"/></g><g><path d="M17.5,18.3c-0.1,0-0.3,0-0.4-0.1l-4.1-4c-0.2-0.2-0.2-0.5,0-0.7c0.2-0.2,0.5-0.2,0.7,0l4.1,4c0.2,0.2,0.2,0.5,0,0.7    C17.8,18.2,17.7,18.3,17.5,18.3z"/></g></g></svg>