<?xml version="1.0" encoding="UTF-8"?>
<svg
        xmlns:svg="http://www.w3.org/2000/svg"
        xmlns="http://www.w3.org/2000/svg"
        width="300"
        height="300"
        viewBox="0 0 300 300"
        version="1.1"
        id="svg10">
    <style
            id="style2">.a{fill:#00c462;}
    </style>
    <path
            d="m 12.368288,132.02168 c 1.275977,41.66847 2.594486,87.43127 29.425811,121.76399 33.448496,39.04265 90.034701,52.03299 139.076971,41.18718 40.42384,-8.53561 79.2001,-35.17218 94.09097,-74.76327 C 287.53153,178.97314 263.12008,134.50871 228.00163,112.84621 172.15637,79.787222 114.8404,45.801473 50.390152,32.961119 31.586286,29.5809 21.143426,49.307051 19.520473,65.126922 16.171594,87.319961 13.048809,106.68347 12.370527,132.02392 Z"
            class="a"
            id="path4"
            style="stroke-width:2.23856"/>
    <path
            d="m 105.54592,22.352604 c 2.22512,-3.028765 42.82356,-19.4552854 48.17147,-20.126852 7.16338,0.3290677 45.03526,16.686193 47.38798,19.144126 -2.73999,2.71313 -20.68201,13.751447 -33.03436,18.156924 -15.42589,6.003806 -27.06637,0.765586 -39.06951,-4.833041 -7.98493,-3.738388 -21.7207,-9.739955 -23.45334,-12.341157 z"
            class="a"
            id="path6"
            style="stroke-width:2.23856"/>
    <path
            d="M 188.41724,56.087635 C 213.92782,42.4123 240.66066,29.305558 270.09542,27.61321 c 15.77287,-0.846174 13.38433,23.58542 17.12271,34.601351 2.03933,16.567549 5.23822,33.361192 4.06746,50.036199 -1.84681,11.41887 -21.99829,-3.89061 -30.50703,-12.22251 C 238.41986,82.737638 213.9032,68.254184 188.41724,56.087635 Z"
            class="a"
            id="path8"
            style="stroke-width:2.23856"/>
</svg>
