<?xml version="1.0" standalone="no"?>
<!DOCTYPE svg PUBLIC "-//W3C//DTD SVG 20010904//EN"
 "http://www.w3.org/TR/2001/REC-SVG-20010904/DTD/svg10.dtd">
<svg version="1.0" xmlns="http://www.w3.org/2000/svg"
 width="1600.000000pt" height="1600.000000pt" viewBox="0 0 1600.000000 1600.000000"
 preserveAspectRatio="xMidYMid meet">
<metadata>
Created by potrace 1.15, written by Peter Selinger 2001-2017
</metadata>
<g transform="translate(0.000000,1600.000000) scale(0.100000,-0.100000)"
fill="#000000" stroke="none">
<path d="M7500 13250 l0 -1250 500 0 500 0 0 1250 0 1250 -500 0 -500 0 0
-1250z"/>
<path d="M3395 12600 l-350 -350 181 -182 c99 -101 496 -502 883 -892 l703
-709 359 359 c197 197 358 362 357 366 -4 10 -1771 1758 -1778 1758 -3 0 -162
-157 -355 -350z"/>
<path d="M11360 12074 c-487 -481 -886 -879 -888 -882 -1 -4 160 -169 357
-366 l359 -359 703 709 c387 390 784 791 883 892 l181 182 -350 350 c-193 193
-352 350 -355 350 -3 0 -404 -394 -890 -876z"/>
<path d="M7685 11490 c-681 -66 -1293 -310 -1845 -736 -149 -115 -479 -445
-594 -594 -388 -503 -618 -1039 -713 -1658 -25 -164 -27 -201 -27 -497 -1
-341 6 -415 59 -687 108 -543 351 -1064 701 -1503 113 -141 408 -436 549 -549
507 -405 1094 -653 1755 -743 192 -26 668 -26 860 0 659 90 1249 339 1755 743
142 113 437 408 549 549 351 441 594 961 701 1503 53 269 59 346 59 682 0 336
-6 413 -59 682 -108 543 -351 1064 -701 1503 -113 142 -408 436 -549 549 -498
398 -1064 641 -1715 737 -153 23 -626 34 -785 19z m679 -1021 c267 -38 494
-109 742 -229 646 -316 1131 -911 1310 -1606 57 -224 77 -388 77 -634 0 -246
-20 -410 -77 -634 -85 -327 -251 -660 -466 -931 -81 -103 -282 -304 -385 -385
-271 -215 -604 -381 -931 -466 -223 -57 -388 -77 -634 -77 -246 0 -411 20
-634 77 -433 112 -850 355 -1161 677 -299 309 -515 696 -621 1105 -57 224 -77
388 -77 634 0 246 20 410 77 634 220 853 892 1537 1743 1771 333 92 690 114
1037 64z"/>
<path d="M1500 8000 l0 -500 1250 0 1250 0 0 500 0 500 -1250 0 -1250 0 0
-500z"/>
<path d="M12000 8000 l0 -500 1250 0 1250 0 0 500 0 500 -1250 0 -1250 0 0
-500z"/>
<path d="M3930 4645 c-481 -486 -876 -887 -877 -892 -2 -4 154 -165 347 -358
l350 -350 187 186 c104 101 505 499 892 883 l704 698 -359 359 c-197 197 -361
359 -364 359 -3 0 -399 -398 -880 -885z"/>
<path d="M10826 5171 l-359 -359 704 -698 c387 -384 788 -782 892 -883 l187
-186 350 350 c193 193 350 352 350 355 0 7 -1748 1774 -1758 1778 -4 1 -169
-160 -366 -357z"/>
<path d="M7500 2750 l0 -1250 500 0 500 0 0 1250 0 1250 -500 0 -500 0 0
-1250z"/>
</g>
</svg>
