<?xml version="1.0" encoding="utf-8"?>
<!-- Generator: Adobe Illustrator 21.1.0, SVG Export Plug-In . SVG Version: 6.00 Build 0)  -->
<svg version="1.1" id="Laag_1" xmlns="http://www.w3.org/2000/svg" xmlns:xlink="http://www.w3.org/1999/xlink" x="0px" y="0px"
	 viewBox="0 0 1600 1600" style="enable-background:new 0 0 1600 1600;" xml:space="preserve">
<g transform="translate(0.000000,1600.000000) scale(0.100000,-0.100000)">
	<path d="M7500,13250v-1250h500h500v1250v1250h-500h-500V13250z"/>
	<path d="M3395,12600l-350-350l181-182c99-101,496-502,883-892l703-709l359,359c197,197,358,362,357,366c-4,10-1771,1758-1778,1758
		C3747,12950,3588,12793,3395,12600z"/>
	<path d="M11360,12074c-487-481-886-879-888-882c-1-4,160-169,357-366l359-359l703,709c387,390,784,791,883,892l181,182l-350,350
		c-193,193-352,350-355,350S11846,12556,11360,12074z"/>
	<path d="M7685,11490c-681-66-1293-310-1845-736c-149-115-479-445-594-594c-388-503-618-1039-713-1658c-25-164-27-201-27-497
		c-1-341,6-415,59-687c108-543,351-1064,701-1503c113-141,408-436,549-549c507-405,1094-653,1755-743c192-26,668-26,860,0
		c659,90,1249,339,1755,743c142,113,437,408,549,549c351,441,594,961,701,1503c53,269,59,346,59,682s-6,413-59,682
		c-108,543-351,1064-701,1503c-113,142-408,436-549,549c-498,398-1064,641-1715,737C8317,11494,7844,11505,7685,11490z M8364,10469
		c267-38,494-109,742-229c646-316,1131-911,1310-1606c57-224,77-388,77-634s-20-410-77-634c-85-327-251-660-466-931
		c-81-103-282-304-385-385c-271-215-604-381-931-466c-223-57-388-77-634-77s-411,20-634,77c-433,112-850,355-1161,677
		c-299,309-515,696-621,1105c-57,224-77,388-77,634s20,410,77,634c220,853,892,1537,1743,1771C7660,10497,8017,10519,8364,10469z"/>
	<path d="M1500,8000v-500h1250h1250v500v500H2750H1500V8000z"/>
	<path d="M12000,8000v-500h1250h1250v500v500h-1250h-1250V8000z"/>
	<path d="M3930,4645c-481-486-876-887-877-892c-2-4,154-165,347-358l350-350l187,186c104,101,505,499,892,883l704,698l-359,359
		c-197,197-361,359-364,359S4411,5132,3930,4645z"/>
	<path d="M10826,5171l-359-359l704-698c387-384,788-782,892-883l187-186l350,350c193,193,350,352,350,355c0,7-1748,1774-1758,1778
		C11188,5529,11023,5368,10826,5171z"/>
	<path d="M7500,2750V1500h500h500v1250v1250h-500h-500V2750z"/>
</g>
</svg>
