<?xml version="1.0" standalone="no"?>
<!DOCTYPE svg PUBLIC "-//W3C//DTD SVG 20010904//EN"
 "http://www.w3.org/TR/2001/REC-SVG-20010904/DTD/svg10.dtd">
<svg version="1.0" xmlns="http://www.w3.org/2000/svg"
 width="1600.000000pt" height="1600.000000pt" viewBox="0 0 1600.000000 1600.000000"
 preserveAspectRatio="xMidYMid meet">
<g transform="translate(0.000000,1600.000000) scale(0.100000,-0.100000)"
fill="#000000" stroke="none">
<path d="M9643 15323 c-732 -1026 -1303 -2062 -1548 -2808 -109 -332 -158
-608 -158 -890 1 -442 122 -817 383 -1188 80 -114 295 -332 414 -419 235 -175
525 -297 826 -350 101 -17 461 -17 560 0 416 75 739 240 1034 530 458 451 667
1092 570 1751 -44 302 -141 624 -301 1001 -228 538 -635 1267 -1088 1945 -164
246 -483 695 -494 695 -4 0 -92 -120 -198 -267z m309 -1035 c411 -598 839
-1438 1026 -2018 108 -334 144 -563 123 -777 -61 -602 -472 -1072 -1036 -1184
-113 -23 -380 -18 -485 8 -264 66 -459 179 -639 369 -181 191 -298 428 -347
704 -20 114 -20 340 1 455 90 507 403 1240 861 2011 128 217 370 583 385 584
3 0 53 -69 111 -152z"/>
<path d="M6125 12206 c-62 -19 -80 -32 -168 -113 -264 -243 -674 -423 -1153
-505 -187 -32 -523 -32 -708 0 -204 35 -386 85 -551 149 -233 92 -494 248
-579 347 -84 99 -212 143 -322 111 -87 -25 -123 -46 -196 -118 -162 -158 -482
-324 -803 -416 -191 -55 -401 -88 -620 -100 -174 -9 -232 -28 -305 -101 -85
-85 -113 -220 -69 -335 30 -80 104 -154 182 -183 155 -58 673 3 1048 124 250
80 515 205 711 334 l107 70 123 -81 c272 -178 627 -323 973 -399 303 -66 662
-87 955 -56 263 28 550 94 787 181 144 53 422 193 547 275 l108 71 102 -67
c130 -85 405 -220 571 -279 72 -26 207 -66 300 -90 162 -41 381 -82 391 -73 2
3 -9 61 -25 129 -29 120 -55 293 -67 451 l-6 77 -56 12 c-356 73 -832 302
-901 434 -30 57 -88 110 -155 141 -58 27 -153 31 -221 10z"/>
<path d="M13113 12190 c-61 -13 -89 -30 -188 -115 -166 -142 -404 -280 -611
-354 l-91 -33 -6 -141 c-7 -154 -27 -314 -56 -447 -11 -47 -17 -87 -15 -89 7
-8 231 59 359 107 212 79 398 174 579 294 49 32 91 58 95 56 3 -2 51 -33 107
-70 187 -125 446 -249 670 -321 320 -104 696 -165 950 -155 93 3 116 8 160 30
156 81 220 269 144 424 -61 125 -169 184 -334 184 -227 0 -573 67 -826 160
-240 88 -443 203 -613 347 -128 108 -221 143 -324 123z"/>
<path d="M6147 8720 c-63 -19 -136 -66 -208 -135 -314 -299 -940 -515 -1494
-515 -470 0 -977 148 -1336 389 -57 38 -133 98 -169 134 -79 78 -150 109 -252
109 -90 0 -143 -25 -237 -115 -250 -235 -679 -418 -1149 -492 -57 -8 -177 -20
-268 -24 -189 -11 -236 -26 -312 -103 -67 -67 -87 -118 -87 -223 0 -78 4 -97
27 -140 34 -65 90 -118 158 -149 50 -24 66 -26 190 -26 518 0 1131 183 1567
468 l121 80 114 -75 c127 -84 404 -224 548 -277 686 -251 1395 -262 2076 -32
225 76 462 191 646 313 l110 73 47 -33 c298 -213 697 -379 1111 -461 548 -109
1122 -61 1670 141 146 53 423 193 548 276 l114 75 113 -74 c368 -242 830 -403
1315 -459 181 -21 566 -16 730 10 480 75 895 229 1235 458 49 33 94 60 100 60
5 0 51 -28 101 -61 454 -303 1098 -494 1615 -480 105 2 131 6 171 26 191 94
239 344 99 505 -18 20 -61 51 -96 68 -59 29 -72 31 -233 40 -459 24 -907 162
-1232 378 -86 57 -109 77 -129 115 -73 141 -261 201 -406 130 -33 -16 -84 -54
-115 -84 -176 -178 -478 -340 -810 -435 -533 -153 -1035 -139 -1565 46 -252
87 -541 250 -589 333 -32 55 -96 113 -155 139 -35 16 -66 22 -126 22 -103 0
-163 -28 -259 -120 -319 -305 -952 -525 -1512 -525 -456 0 -973 148 -1322 380
-76 50 -96 70 -117 109 -62 123 -224 198 -348 161z"/>
<path d="M5969 6623 c-30 -43 -107 -150 -170 -238 -570 -791 -1145 -1799
-1414 -2480 -324 -819 -343 -1456 -60 -2043 297 -616 861 -1021 1520 -1093
132 -14 362 -7 490 16 663 116 1214 575 1469 1224 46 115 99 323 117 451 20
138 17 449 -4 590 -67 436 -217 866 -503 1440 -246 492 -550 1010 -906 1544
-157 235 -466 666 -476 666 -4 0 -33 -35 -63 -77z m193 -1254 c475 -696 926
-1630 1073 -2219 51 -207 60 -271 59 -435 -2 -280 -76 -524 -231 -758 -68
-103 -250 -283 -356 -352 -424 -275 -939 -272 -1362 6 -88 58 -249 213 -312
299 -133 184 -220 397 -253 619 -16 107 -13 315 5 423 90 529 458 1367 948
2159 123 198 290 440 301 436 5 -2 63 -82 128 -178z"/>
<path d="M13115 5222 c-70 -25 -128 -65 -194 -131 -113 -114 -384 -272 -601
-349 -307 -110 -598 -163 -895 -163 -551 0 -1139 203 -1495 516 -88 77 -149
107 -230 112 -95 7 -158 -20 -257 -108 -326 -293 -847 -489 -1383 -518 -83 -5
-153 -11 -156 -14 -3 -3 20 -62 50 -131 59 -132 165 -395 185 -458 11 -33 16
-37 39 -33 15 2 72 9 127 15 463 52 955 228 1314 469 l73 49 113 -74 c354
-233 809 -392 1285 -450 180 -22 502 -22 675 0 504 64 956 227 1330 479 l79
54 111 -73 c447 -293 1029 -470 1570 -477 132 -2 143 0 195 24 79 37 125 81
160 153 77 156 11 351 -145 426 -50 24 -143 39 -247 40 -146 0 -413 46 -618
106 -303 87 -669 277 -713 369 -27 58 -102 131 -159 155 -71 31 -150 35 -213
12z"/>
<path d="M2625 5206 c-63 -20 -95 -40 -174 -110 -188 -167 -423 -294 -722
-391 -228 -73 -426 -110 -687 -126 -143 -9 -175 -14 -222 -35 -68 -31 -123
-83 -158 -149 -23 -43 -27 -62 -27 -140 0 -103 19 -154 82 -218 92 -96 167
-114 401 -98 570 39 1079 203 1494 481 l86 58 64 -43 c296 -198 659 -347 1042
-428 107 -23 118 -24 123 -9 23 66 135 336 188 452 41 90 59 142 52 144 -7 2
-68 13 -137 24 -424 71 -843 261 -1075 489 -64 63 -91 82 -134 96 -62 20 -139
21 -196 3z"/>
</g>
</svg>
