<?xml version="1.0" standalone="no"?>
<!DOCTYPE svg PUBLIC "-//W3C//DTD SVG 20010904//EN"
 "http://www.w3.org/TR/2001/REC-SVG-20010904/DTD/svg10.dtd">
<svg version="1.0" xmlns="http://www.w3.org/2000/svg"
 width="1600.000000pt" height="1600.000000pt" viewBox="0 0 1600.000000 1600.000000"
 preserveAspectRatio="xMidYMid meet">
<g transform="translate(0.000000,1600.000000) scale(0.100000,-0.100000)"
fill="#000000" stroke="none">
<path d="M7810 15994 c-478 -56 -886 -246 -1211 -566 -299 -292 -485 -642
-572 -1072 l-22 -111 -5 -3905 -5 -3905 -24 -48 c-18 -37 -48 -68 -130 -133
-365 -292 -630 -592 -853 -964 -178 -296 -301 -594 -387 -938 -73 -293 -101
-529 -101 -857 0 -631 151 -1193 466 -1741 242 -422 632 -845 1042 -1130 806
-559 1781 -753 2742 -543 1110 241 2036 1013 2479 2066 140 331 231 705 262
1071 15 180 7 564 -16 727 -128 935 -571 1714 -1306 2301 -91 73 -122 104
-140 141 l-24 48 -6 3875 c-3 2131 -9 3889 -13 3905 -4 17 -17 77 -28 135 -24
129 -93 339 -152 464 -284 609 -841 1047 -1476 1161 -91 16 -435 29 -520 19z
m320 -505 c583 -54 1088 -468 1280 -1048 47 -140 66 -230 80 -376 6 -69 10
-563 10 -1337 l0 -1228 -1500 0 -1500 0 0 380 0 380 402 0 c387 0 403 1 445
21 175 85 192 333 29 434 l-49 30 -414 3 -413 3 0 379 0 380 641 0 c475 0 652
3 683 12 59 18 138 99 155 160 31 112 -10 225 -103 283 l-49 30 -665 3 -664 2
7 78 c35 412 189 745 470 1011 194 183 416 303 678 366 172 41 301 51 477 34z
m1372 -6811 l3 -2333 26 -77 c58 -169 131 -263 324 -417 221 -176 463 -433
617 -656 620 -897 695 -2079 195 -3059 -78 -152 -203 -349 -317 -496 -96 -124
-357 -385 -490 -490 -714 -565 -1629 -773 -2519 -574 -548 123 -1048 401
-1456 809 -499 499 -779 1082 -866 1800 -26 214 -14 576 27 825 115 689 495
1346 1035 1785 67 55 150 126 184 158 l62 57 738 0 c728 0 739 0 782 21 51 25
118 97 134 146 6 19 9 63 7 98 -5 82 -44 147 -112 190 l-49 30 -664 3 -663 2
0 380 0 380 402 0 c387 0 403 1 445 21 175 85 192 333 29 434 l-49 30 -414 3
-413 3 0 379 0 380 652 0 c640 0 652 0 695 21 175 85 192 333 29 434 l-49 30
-664 3 -663 2 0 380 0 380 402 0 c387 0 403 1 445 21 175 85 192 333 29 434
l-49 30 -414 3 -413 3 0 379 0 380 1500 0 1500 0 2 -2332z"/>
<path d="M9050 5420 c-207 -41 -278 -300 -119 -433 24 -20 77 -61 118 -91 40
-30 122 -100 182 -155 59 -56 124 -108 143 -116 57 -24 144 -19 204 11 117 58
168 183 126 310 -14 40 -37 70 -128 159 -115 114 -301 261 -371 294 -48 23
-108 31 -155 21z"/>
<path d="M9925 4133 c-87 -19 -150 -66 -188 -137 -25 -50 -28 -134 -8 -256 18
-105 19 -366 2 -479 -30 -207 -106 -432 -202 -606 -81 -146 -87 -214 -26 -316
45 -75 107 -112 198 -117 59 -4 77 0 124 22 65 32 96 70 163 196 108 204 190
443 233 685 21 114 24 160 23 380 0 291 -21 444 -68 516 -36 53 -97 95 -157
108 -52 11 -60 12 -94 4z"/>
</g>
</svg>
