<?xml version="1.0" encoding="UTF-8" standalone="no"?>
<!-- Generator: Adobe Illustrator 21.1.0, SVG Export Plug-In . SVG Version: 6.00 Build 0)  -->

<svg
   version="1.1"
   id="Layer_1"
   x="0px"
   y="0px"
   viewBox="0 0 297.4 1417.3"
   style="enable-background:new 0 0 297.4 1417.3;"
   xml:space="preserve"
   sodipodi:docname="icon.svg"
   inkscape:version="1.1.1 (3bf5ae0d25, 2021-09-20)"
   xmlns:inkscape="http://www.inkscape.org/namespaces/inkscape"
   xmlns:sodipodi="http://sodipodi.sourceforge.net/DTD/sodipodi-0.dtd"
   xmlns="http://www.w3.org/2000/svg"
   xmlns:svg="http://www.w3.org/2000/svg"><defs
   id="defs4488" /><sodipodi:namedview
   id="namedview4486"
   pagecolor="#ffffff"
   bordercolor="#666666"
   borderopacity="1.0"
   inkscape:pageshadow="2"
   inkscape:pageopacity="0.0"
   inkscape:pagecheckerboard="0"
   showgrid="false"
   inkscape:zoom="0.5073026"
   inkscape:cx="148.82636"
   inkscape:cy="707.66442"
   inkscape:window-width="1920"
   inkscape:window-height="975"
   inkscape:window-x="1920"
   inkscape:window-y="0"
   inkscape:window-maximized="1"
   inkscape:current-layer="Layer_1" />
<g
   id="g4483">
	<path
   d="M151.5,0h-5.6C65.4,0,0,65.4,0,145.9v473.9C0,638.1,14.9,653,33.2,653h8.9v670.5c0,41.4,25,77,60.7,92.5   c10.5,4.6,22.3-3.2,22.3-14.7V812.6c0-13,10.5-23.6,23.6-23.6c13,0,23.6,10.5,23.6,23.6v588.7c0,11.5,11.8,19.3,22.3,14.7   c35.7-15.5,60.7-51.1,60.7-92.5V652.9h8.9c18.3,0,33.2-14.9,33.2-33.2V145.9C297.4,65.4,231.9,0,151.5,0z M83.6,1358.7   c-17.3,0-31.4-14.1-31.4-31.4s14.1-31.4,31.4-31.4s31.4,14.1,31.4,31.4S100.9,1358.7,83.6,1358.7z M212.9,1358.7   c-17.3,0-31.4-14.1-31.4-31.4s14.1-31.4,31.4-31.4s31.4,14.1,31.4,31.4S230.2,1358.7,212.9,1358.7z M277.4,619.7   c0,7.3-5.9,13.3-13.3,13.3h-231c-7.3,0-13.3-5.9-13.3-13.3V145.9C19.8,76.5,76.3,20,145.7,20h5.6c69.4,0,125.9,56.5,125.9,125.9   v473.8H277.4z"
   id="path4475" />
	<path
   d="M83.6,1299c-15.4,0-27.9,12.5-27.9,27.9c0,1,0.8,1.8,1.8,1.8s1.8-0.8,1.8-1.8c0-13.4,10.9-24.3,24.3-24.3   c1,0,1.8-0.8,1.8-1.8S84.6,1299,83.6,1299z"
   id="path4477" />
	<path
   d="M213.4,1299c-15.4,0-27.9,12.5-27.9,27.9c0,1,0.8,1.8,1.8,1.8s1.8-0.8,1.8-1.8c0-13.4,10.9-24.3,24.3-24.3   c1,0,1.8-0.8,1.8-1.8S214.4,1299,213.4,1299z"
   id="path4479" />
	<path
   d="M140.8,39.5C83.7,39.5,37.3,85.9,37.3,143c0,2,1.6,3.6,3.6,3.6s3.6-1.6,3.6-3.6c0-53.1,43.2-96.3,96.3-96.3   c2,0,3.6-1.6,3.6-3.6C144.4,41.1,142.8,39.5,140.8,39.5z"
   id="path4481" />
</g>
<path
   d="m 127.64056,152.64351 c 0.20434,6.67275 0.41548,14.00116 4.71222,19.49916 5.35641,6.25226 14.41807,8.33252 22.27166,6.59568 6.47343,-1.36688 12.68303,-5.63244 15.06763,-11.97252 2.01287,-6.60356 -1.89636,-13.72405 -7.52019,-17.19307 -8.943,-5.29403 -18.12154,-10.73647 -28.44253,-12.79272 -3.01123,-0.5413 -4.68354,2.61762 -4.94344,5.151 -0.53629,3.55397 -1.03637,6.65483 -1.14499,10.71283 z"
   class="a"
   id="path4"
   style="fill:#b3b3b3;stroke-width:0.35848" /><path
   d="m 142.56194,135.08121 c 0.35632,-0.48503 6.85772,-3.11555 7.71413,-3.2231 1.14714,0.0526 7.21191,2.67211 7.58866,3.06573 -0.43877,0.43447 -3.31199,2.20214 -5.29009,2.90763 -2.47028,0.96144 -4.33437,0.12259 -6.25655,-0.77396 -1.27869,-0.59866 -3.47833,-1.55975 -3.7558,-1.9763 z"
   class="a"
   id="path6"
   style="fill:#b3b3b3;stroke-width:0.35848" /><path
   d="m 155.83287,140.4835 c 4.08524,-2.18995 8.36621,-4.28885 13.07987,-4.55987 2.52585,-0.1355 2.14335,3.77695 2.74201,5.54103 0.32658,2.65312 0.83885,5.34243 0.65136,8.01275 -0.29574,1.8286 -3.52278,-0.62303 -4.88537,-1.9573 -3.5805,-2.7689 -7.50657,-5.08827 -11.58787,-7.03661 z"
   class="a"
   id="path8"
   style="fill:#b3b3b3;stroke-width:0.35848" /></svg>
