<?xml version="1.0" encoding="utf-8"?>
<!-- Generator: Adobe Illustrator 21.1.0, SVG Export Plug-In . SVG Version: 6.00 Build 0)  -->
<svg version="1.1" id="Layer_1" xmlns="http://www.w3.org/2000/svg" xmlns:xlink="http://www.w3.org/1999/xlink" x="0px" y="0px"
	 viewBox="0 0 201.8 205" style="enable-background:new 0 0 201.8 205;" xml:space="preserve">
<g>
	<path d="M97.1,56.2c-0.5-1.1-0.3-2.5,0-5.2c0.1-1.4,0.3-1.8,0.7-2.1c0.6-0.5,1.5-0.2,3.2,0.3V34.8H41.2c-3.9,0-7.1,3.2-6.9,7.1
		c0.1,2.1,0.2,4.5,0.3,7c0.6,9.1,0.9,13.6,2,16.8c3,8.8,7.7,9.9,8.5,17.8c0.2,1.8,0.4,5.8,0.4,7.9c0.2,4.3,0.2,7.4,0.2,7.9
		c0.1,9.4,1.5,26.8,3.5,54.5c0.1,1.2,0.2,3.4,0.4,5.3c0.1,1.9,1,3.6,2.5,4.8c0.3,0.3,0.7,0.6,1.1,0.9c4.9,3.5,10,4,12.2,4.2
		c7.2,0.6,20.6,1,35.5,1V59.8C99.1,59.2,97.7,57.7,97.1,56.2z"/>
	<path d="M160.5,34.8h-59.6v14.4c0.2,0.1,0.4,0.1,0.6,0.2c2.2,0.7,3.6,1.5,4,1.8c1.1,0.7,1.7,1,2.1,1.5c1,1.4,1.3,3.7,0.1,5.4
		c-1.7,2.6-5.4,2-5.8,1.9s-0.7-0.2-1-0.3V170c14.8,0,28.3-0.4,35.5-1c2.2-0.2,7.4-0.7,12.2-4.2c0.4-0.3,0.8-0.6,1.1-0.9
		c1.5-1.2,2.3-3,2.5-4.8c0.1-1.9,0.3-4.1,0.4-5.3c2-27.7,3.4-45.1,3.5-54.5c0-0.5,0-3.7,0.2-7.9c0.1-2.1,0.3-6.1,0.4-7.9
		c0.8-7.9,5.4-9.1,8.5-17.8c1.1-3.2,1.4-7.7,2-16.8c0.2-2.5,0.3-4.9,0.3-7C167.6,38.1,164.5,34.8,160.5,34.8z M104.6,48.5
		c-0.1,0.5-1.3,0.8-2.2,0.6c-0.9-0.3-1.7-1.1-1.5-1.6c0.2-0.6,1.7-0.7,2.7-0.2C104,47.5,104.7,48.1,104.6,48.5z M108.9,52
		c-0.9,0.6-4.1-1.6-3.8-2.7c0.2-0.7,1.8-1.4,3-0.7C109.6,49.4,109.5,51.6,108.9,52z"/>
	<rect x="100.9" y="49.2" width="0" height="10.6"/>
</g>
</svg>
