<?xml version="1.0" encoding="utf-8"?>
<!-- Generator: Adobe Illustrator 21.1.0, SVG Export Plug-In . SVG Version: 6.00 Build 0)  -->
<svg version="1.1" id="Laag_1" xmlns="http://www.w3.org/2000/svg" xmlns:xlink="http://www.w3.org/1999/xlink" x="0px" y="0px"
	 viewBox="0 0 1600 1600" style="enable-background:new 0 0 1600 1600;" xml:space="preserve">
<g transform="translate(0.000000,1600.000000) scale(0.100000,-0.100000)">
	<path d="M7810,15994c-478-56-886-246-1211-566c-299-292-485-642-572-1072l-22-111l-5-3905l-5-3905l-24-48c-18-37-48-68-130-133
		c-365-292-630-592-853-964c-178-296-301-594-387-938c-73-293-101-529-101-857c0-631,151-1193,466-1741c242-422,632-845,1042-1130
		C6814,65,7789-129,8750,81c1110,241,2036,1013,2479,2066c140,331,231,705,262,1071c15,180,7,564-16,727
		c-128,935-571,1714-1306,2301c-91,73-122,104-140,141l-24,48l-6,3875c-3,2131-9,3889-13,3905c-4,17-17,77-28,135
		c-24,129-93,339-152,464c-284,609-841,1047-1476,1161C8239,15991,7895,16004,7810,15994z M8130,15489c583-54,1088-468,1280-1048
		c47-140,66-230,80-376c6-69,10-563,10-1337v-1228H8000H6500v380v380h402c387,0,403,1,445,21c175,85,192,333,29,434l-49,30l-414,3
		l-413,3v379v380h641c475,0,652,3,683,12c59,18,138,99,155,160c31,112-10,225-103,283l-49,30l-665,3l-664,2l7,78
		c35,412,189,745,470,1011c194,183,416,303,678,366C7825,15496,7954,15506,8130,15489z M9502,8678l3-2333l26-77
		c58-169,131-263,324-417c221-176,463-433,617-656c620-897,695-2079,195-3059c-78-152-203-349-317-496c-96-124-357-385-490-490
		c-714-565-1629-773-2519-574c-548,123-1048,401-1456,809c-499,499-779,1082-866,1800c-26,214-14,576,27,825
		c115,689,495,1346,1035,1785c67,55,150,126,184,158l62,57h738c728,0,739,0,782,21c51,25,118,97,134,146c6,19,9,63,7,98
		c-5,82-44,147-112,190l-49,30l-664,3l-663,2v380v380h402c387,0,403,1,445,21c175,85,192,333,29,434l-49,30l-414,3l-413,3v379v380
		h652c640,0,652,0,695,21c175,85,192,333,29,434l-49,30l-664,3l-663,2v380v380h402c387,0,403,1,445,21c175,85,192,333,29,434l-49,30
		l-414,3l-413,3v379v380h1500h1500L9502,8678z"/>
	<path d="M9050,5420c-207-41-278-300-119-433c24-20,77-61,118-91c40-30,122-100,182-155c59-56,124-108,143-116c57-24,144-19,204,11
		c117,58,168,183,126,310c-14,40-37,70-128,159c-115,114-301,261-371,294C9157,5422,9097,5430,9050,5420z"/>
	<path d="M9925,4133c-87-19-150-66-188-137c-25-50-28-134-8-256c18-105,19-366,2-479c-30-207-106-432-202-606c-81-146-87-214-26-316
		c45-75,107-112,198-117c59-4,77,0,124,22c65,32,96,70,163,196c108,204,190,443,233,685c21,114,24,160,23,380c0,291-21,444-68,516
		c-36,53-97,95-157,108C9967,4140,9959,4141,9925,4133z"/>
</g>
</svg>
